<svg width="32" height="32" viewBox="0 0 32 32" fill="none" xmlns="http://www.w3.org/2000/svg">
<g clip-path="url(#clip0_1_404)">
<mask id="path-1-outside-1_1_404" maskUnits="userSpaceOnUse" x="5.66693" y="5.66681" width="21" height="21" fill="black">
<rect fill="white" x="5.66693" y="5.66681" width="21" height="21"/>
<path fill-rule="evenodd" clip-rule="evenodd" d="M14.3336 6.66681C13.7813 6.66681 13.3336 7.11452 13.3336 7.66681V13.3337H7.66693C7.11464 13.3337 6.66693 13.7814 6.66693 14.3337V17.667C6.66693 18.2193 7.11464 18.667 7.66693 18.667H13.3336V24.3335C13.3336 24.8858 13.7813 25.3335 14.3336 25.3335H17.6669C18.2192 25.3335 18.6669 24.8858 18.6669 24.3335V18.667H24.3336C24.8859 18.667 25.3336 18.2193 25.3336 17.667V14.3337C25.3336 13.7814 24.8859 13.3337 24.3336 13.3337H18.6669V7.66681C18.6669 7.11452 18.2192 6.66681 17.6669 6.66681H14.3336Z"/>
</mask>
<path fill-rule="evenodd" clip-rule="evenodd" d="M14.3336 6.66681C13.7813 6.66681 13.3336 7.11452 13.3336 7.66681V13.3337H7.66693C7.11464 13.3337 6.66693 13.7814 6.66693 14.3337V17.667C6.66693 18.2193 7.11464 18.667 7.66693 18.667H13.3336V24.3335C13.3336 24.8858 13.7813 25.3335 14.3336 25.3335H17.6669C18.2192 25.3335 18.6669 24.8858 18.6669 24.3335V18.667H24.3336C24.8859 18.667 25.3336 18.2193 25.3336 17.667V14.3337C25.3336 13.7814 24.8859 13.3337 24.3336 13.3337H18.6669V7.66681C18.6669 7.11452 18.2192 6.66681 17.6669 6.66681H14.3336Z" fill="white" fill-opacity="0.2"/>
<path d="M13.3336 13.3337V14.3337C13.8859 14.3337 14.3336 13.886 14.3336 13.3337H13.3336ZM13.3336 18.667H14.3336C14.3336 18.1148 13.8859 17.667 13.3336 17.667V18.667ZM18.6669 18.667V17.667C18.1146 17.667 17.6669 18.1148 17.6669 18.667H18.6669ZM18.6669 13.3337H17.6669C17.6669 13.886 18.1146 14.3337 18.6669 14.3337V13.3337ZM14.3336 7.66681V7.66681V5.66681C13.229 5.66681 12.3336 6.56223 12.3336 7.66681H14.3336ZM14.3336 13.3337V7.66681H12.3336V13.3337H14.3336ZM7.66693 14.3337H13.3336V12.3337H7.66693V14.3337ZM7.66693 14.3337V14.3337V12.3337C6.56236 12.3337 5.66693 13.2291 5.66693 14.3337H7.66693ZM7.66693 17.667V14.3337H5.66693V17.667H7.66693ZM7.66693 17.667H7.66693H5.66693C5.66693 18.7716 6.56235 19.667 7.66693 19.667V17.667ZM13.3336 17.667H7.66693V19.667H13.3336V17.667ZM14.3336 24.3335V18.667H12.3336V24.3335H14.3336ZM14.3336 24.3335H14.3336H12.3336C12.3336 25.438 13.229 26.3335 14.3336 26.3335V24.3335ZM17.6669 24.3335H14.3336V26.3335H17.6669V24.3335ZM17.6669 24.3335V24.3335V26.3335C18.7715 26.3335 19.6669 25.438 19.6669 24.3335H17.6669ZM17.6669 18.667V24.3335H19.6669V18.667H17.6669ZM24.3336 17.667H18.6669V19.667H24.3336V17.667ZM24.3336 17.667V17.667V19.667C25.4382 19.667 26.3336 18.7716 26.3336 17.667H24.3336ZM24.3336 14.3337V17.667H26.3336V14.3337H24.3336ZM24.3336 14.3337H24.3336H26.3336C26.3336 13.2291 25.4382 12.3337 24.3336 12.3337V14.3337ZM18.6669 14.3337H24.3336V12.3337H18.6669V14.3337ZM17.6669 7.66681V13.3337H19.6669V7.66681H17.6669ZM17.6669 7.66681L17.6669 7.66681H19.6669C19.6669 6.56224 18.7715 5.66681 17.6669 5.66681V7.66681ZM14.3336 7.66681H17.6669V5.66681H14.3336V7.66681Z" fill="white" mask="url(#path-1-outside-1_1_404)"/>
</g>
<defs>
<clipPath id="clip0_1_404">
<rect width="32" height="32" fill="white"/>
</clipPath>
</defs>
</svg>
